<?xml version="1.0" encoding="utf-8"?>
<!-- Generator: Adobe Illustrator 23.0.0, SVG Export Plug-In . SVG Version: 6.00 Build 0)  -->
<svg version="1.1" id="图层_1" xmlns="http://www.w3.org/2000/svg" xmlns:xlink="http://www.w3.org/1999/xlink" x="0px" y="0px"
	 viewBox="0 0 45.1 57.8" enable-background="new 0 0 45.1 57.8" xml:space="preserve">
<path fill-rule="evenodd" clip-rule="evenodd" d="M39,0c2.8,0.5,4.6,1.8,5.3,4.5c2,2.3,0,10,0,13.5c0,13.9,1.5,28.6-0.8,39.8
	C41,57.1,40,55.4,38.2,54c0-0.3,0-0.5,0-0.8c-1-0.3-2-0.5-3-0.8c-0.3-0.5-0.5-1-0.8-1.5c-0.5,0-1,0-1.5,0c-1.2-1.5-2.5-3-3.8-4.5
	c0.7,0,1.5,0,2.3,0c1.8,2,6.2,2.9,9.8,3c0-1.2,0-2.5,0-3.8c-0.3,0-0.5,0-0.8,0c0-9.5,0-19,0-28.5C40.7,13,41,8.7,41.2,4.5
	c-0.3,0-0.5,0-0.8,0C39.3,2.7,39.2,3.1,39,0z"/>
<path fill-rule="evenodd" clip-rule="evenodd" d="M12,23.3c5.1-0.1,7.3-2,10.5-3.8c-0.9-0.9,0-0.3-1.5-0.8c0.3-0.7,0.5-1.5,0.8-2.3
	c0.7,0.3,1.5,0.5,2.3,0.8c1,1.7,3.2,3.9,2.3,5.3c-1.2,1.4-1.5,0.6-3,1.5c0,0.3,0,0.5,0,0.8c-0.5,0-1,0-1.5,0c-0.3,0.5-0.5,1-0.8,1.5
	c-1.5,0.3-3,0.5-4.5,0.8c-0.9-0.9,0-0.3-1.5-0.8c0,0.5,0,1,0,1.5c0.7,0.5,1.5,1,2.2,1.5c0,0.3,0,0.5,0,0.8c2.8,2,4.3,1.2,4.5,6
	c-2.1,1.2-3.9,3.4-4.5,6c0.7,0,1.5,0,2.3,0c0.1,0,1.9-3.5,2.3-3c0,0.5,0,1,0,1.5c1,1,2.1,4,2.3,6c-3.7-0.1-7.7-0.3-10.5,0.8
	c0,0.3,0,0.5,0,0.8c-0.7,0-1.5,0-2.3,0c0,0.3,0,0.5,0,0.8c-0.5,0-1,0-1.5,0c0,0.3,0,0.5,0,0.8c-1.1,0.7-1.8,0.6-3.8,0.8
	c-1-2-1.3-1.3-1.5-4.5c0.8-0.6,1.6-2.6,2.3-3c1.9-1.2,1.4,0.8,3-1.5c-0.3,0-0.5,0-0.8,0c0-0.3,0-0.5,0-0.8c-1.2-0.3-2.5-0.5-3.8-0.8
	c0-1.2,0-2.5,0-3.8c2.5-1.5,5-3,7.5-4.5c-0.6-0.9,0.1-0.1-0.8-0.8c-0.6-2.2-0.5-2-3-2.3c-1.5,1.8-4.2,2.9-7.5,3
	C1.3,30.8,1,30,0.8,29.3c-0.3,0-0.5,0-0.8,0c0-1.2,0-2.5,0-3.8c0.9-0.9,0.3,0,0.8-1.5c0.7,0,1.5,0,2.3,0c1.3-2.3,5.9-6.9,8.3-8.3
	c-2-2.4-4.1-2.5-4.5-6.8C8,9,9.3,9,10.5,9c0-0.3,0-0.5,0-0.8c3-1,6-2,9-3c0,0.3,0,0.5,0,0.8c2.8,0.6,3.7,1.8,3.8,5.3
	c-2.2,1.7-4.5,3.5-6.8,5.3c0,0.5,0,1,0,1.5c-0.3,0-0.5,0-0.8,0C14.3,19.7,12.6,20.8,12,23.3z"/>
<path fill-rule="evenodd" clip-rule="evenodd" d="M35.2,11.3c0.3,0,0.5,0,0.8,0c0,0.7,0,1.5,0,2.3c-0.3,0-0.5,0-0.8,0
	C35.2,12.8,35.2,12,35.2,11.3z"/>
<path fill-rule="evenodd" clip-rule="evenodd" d="M34.5,13.5c0.3,0,0.5,0,0.8,0c0,0.7,0,1.5,0,2.3c-0.3,0-0.5,0-0.8,0
	C34.5,15,34.5,14.2,34.5,13.5z"/>
<path fill-rule="evenodd" clip-rule="evenodd" d="M33.7,17.3c0-0.5,0-1,0-1.5c0.3,0,0.5,0,0.8,0c0,5.7,0,11.5,0,17.3
	c-0.3,0-0.5,0-0.8,0c0,0.7,0,1.5,0,2.3c-0.3,0-0.5,0-0.8,0c-0.3,0.7-0.5,1.5-0.8,2.3c-0.9-0.9-0.3,0-0.8-1.5
	c-1.6-1.5-0.7-1.5-1.5-3.8c-0.3,0-0.5,0-0.8,0c-1.5-4.8,3.3-6.8,1.5-12c-0.3,0-0.5,0-0.8,0c-0.5-1.5-1-3-1.5-4.5c0.2,0,0.5,0,0.7,0
	c0,0.3,0,0.5,0,0.8C30.7,16.8,32.3,17,33.7,17.3z"/>
<path fill-rule="evenodd" clip-rule="evenodd" fill="#FFFFFF" d="M11.3,36.8c-0.7,0.8-1.3,1-2.3,1.5c0.4,1.5-0.1,0.6,0.8,1.5
	c0,0.3,0,0.5,0,0.8c0.5,0,1,0,1.5,0C12.4,38.3,13.9,38.7,11.3,36.8z"/>
</svg>
