<?xml version="1.0" encoding="utf-8"?>
<!-- Generator: Adobe Illustrator 23.0.0, SVG Export Plug-In . SVG Version: 6.00 Build 0)  -->
<svg version="1.1" id="图层_1" xmlns="http://www.w3.org/2000/svg" xmlns:xlink="http://www.w3.org/1999/xlink" x="0px" y="0px"
	 viewBox="0 0 79 76" enable-background="new 0 0 79 76" xml:space="preserve">
<path fill-rule="evenodd" clip-rule="evenodd" d="M60.8,13c-3.3,0.3-6.7,0.7-10,1c0.9,3.5,2.5,3.7,3,8c-0.3,0-0.7,0-1,0
	c0,0.3,0,0.7,0,1c-4.9,0.4-7.3,1.9-13,2c0-0.3,0-0.7,0-1c0.3,0,0.7,0,1,0c2.8-3.2,5.7-2.9,6-9c-0.3,0-0.7,0-1,0c0,0.3,0,0.7,0,1
	c-0.3,0-0.7,0-1,0c-0.3,0-0.7,0-1,0c0,0.3,0,0.7,0,1c-1.3,0.9-1.8,0.8-4,1c-0.3-2.7-0.7-5.3-1-8c0.3,0,0.7,0,1,0c1.3-2,1.6-1.9,2-5
	c-2.8,0.7-2.2,0.3-3,3c-1.2,1-6.1,11.1-5,14c0.3,0,0.7,0,1,0c0.8,1.6,0.8,2.4,1,5c3,0.5,5.7,1.5,8,3c0.3,0.7,0.7,1.3,1,2
	c0.7,0,1.3,0,2,0c0.3,0.7,0.7,1.3,1,2c0.7,0,1.3,0,2,0c1.3,1.7,2.7,3.3,4,5c0.7,0,1.3,0,2,0c0.3,0.7,0.7,1.3,1,2
	c1.3,0.3,2.7,0.7,4,1c0.3,0.7,0.7,1.3,1,2c1,0,2,0,3,0c0,0.3,0,0.7,0,1c0.7,0,1.3,0,2,0c0,0.3,0,0.7,0,1c4.5,2.4,10.6,2.5,12,8
	c-5.4,0.2-9.3,1.8-14,0c-1,0-2,0-3,0c-0.7-1-1.3-2-2-3c-1.6-1.4-4.2-2.9-6-4c0.1,2.4,0.8,2.5,1,4c-2.3,2-4.7,4-7,6
	c-0.1,0.2-0.8,3.5-1,4c-7.1,0.2-12.7,3.6-18,6c1.1,1.1,0,0.4,2,1c0.8,1,1.2,1,2,2c3.8-1.7,6.7-2.5,11-4c0-0.3,0-0.7,0-1
	c6.6-2.1,14.8,1,16,5c0.3,0,0.7,0,1,0c0,1.7,0,3.3,0,5c-1.5,0.6-1.6,0.8-4,1c-2.2-3.6-1.2-1.7-5-3c0-0.3,0-0.7,0-1c-1,0.3-2,0.7-3,1
	c0-0.3,0-0.7,0-1c1.3-0.8,1.2-0.7,2-2c-1.8-0.9-1.6-1.4-4-2c0-0.3,0-0.7,0-1c-1,0-2,0-3,0c-2.7,2.3-5.3,4.7-8,7c0,0.3,0,0.7,0,1
	c-1.7,0-3.3,0-5,0c-0.3-1-0.7-2-1-3c-1.1-1.1-0.4,0-1-2c-1.3-0.3-2.7-0.7-4-1c0,0.3,0,0.7,0,1c-1.1,0.9-0.2-0.2-1,1c0,0.3,0,0.7,0,1
	c-0.3,0-0.7,0-1,0c-0.7,1-1.3,2-2,3c-0.7,0-1.3,0-2,0c-0.3,0.7-0.7,1.3-1,2c-1.3,0-2.7,0-4,0c-0.4-2.5-0.9-3.7-1-7c2.3,0,4.7,0,7,0
	c1.7-2.6,5-3.6,7-6c-0.3,0-0.7,0-1,0c-1.2-2.2,0.7-6,1-7c-0.3,0-0.7,0-1,0c0-0.3,0-0.7,0-1c-2,0.6-0.9-0.1-2,1c-2,1.7-3.4,5-4,8
	c-0.3,0-0.7,0-1,0c0-0.3,0-0.7,0-1c-0.3,0-0.7,0-1,0c0-2.7,0-5.3,0-8c0.3,0,0.7,0,1,0c0.3-2,0.7-4,1-6c2.6-1.5,3.4-3.2,7-4
	c0-0.7,0-1.3,0-2c-2.7-0.6-2.3-1.3-5-2c-3.2,6-13.9,17.2-22,18c0-0.3,0-0.7,0-1c0.3,0,0.7,0,1,0c3-3.3,6-6.7,9-10
	c0.7-0.3,1.3-0.7,2-1c0-0.7,0-1.3,0-2c1.7-1.3,3.3-2.7,5-4c0-0.7,0-1.3,0-2c1-0.7,2-1.3,3-2c0-0.7,0-1.3,0-2c1-0.7,2-1.3,3-2
	c0-0.7,0-1.3,0-2c0.7-0.3,1.3-0.7,2-1c0-0.7,0-1.3,0-2c0.3,0,0.7,0,1,0c0.3-1,0.7-2,1-3c-3.1-2.2-1.7-4.7-4-7c-1.5,2.7-5.7,7.2-9,8
	c0-0.3,0-0.7,0-1c-2-1.3-1.9-1.6-2-5c-0.3,0-0.7,0-1,0c0-1,0-2,0-3c4.4-1.9,11.7-9.1,12-15c1.3,0,2.7,0,4,0c1.7,2,3.3,4,5,6
	c-0.3,2-0.7,4-1,6c0.7,0,1.3,0,2,0c0.9-2.2,6.6-13.3,8-14c2.3,0,4.7,0,7,0c0,0.3,0,0.7,0,1c0.3,0,0.7,0,1,0c0,2.9-0.3,4.3-1,6
	c5.6-0.3,9.3-2.2,12,2c0.3,0,0.7,0,1,0C60.8,11,60.8,12,60.8,13z"/>
<path fill-rule="evenodd" clip-rule="evenodd" fill="#FFFFFF" d="M33.3,31c-1.9,3.3-4.9,4.8-6,9c0.3,0,0.7,0,1,0c0-0.3,0-0.7,0-1
	c2-0.3,4-0.7,6-1c2.6-1.2,2.8-2.6,7-3c1.3,1.6,2.8,2.1,4,4c0.3,0,0.7,0,1,0c0.2,1.4-0.4-0.3-1,1c-2.1,2.2-2.2,0.7-5,2
	c0,0.3,0,0.7,0,1c-0.7,0-1.3,0-2,0c-4.7,2.4-9.1,5.7-14,8c0.3,1,0.7,2,1,3c4.3-1.7,3.7-0.7,7,1c0.3-1.3,0.7-2.7,1-4c0.3,0,0.7,0,1,0
	c0-1,0-2,0-3c1-0.3,2-0.7,3-1c0-0.3,0-0.7,0-1c1.3,0.3,2.7,0.7,4,1c0.8,0.4,0.4,2.2,2,2c0-0.3,0-0.7,0-1c1.2-0.6,1.5-1.7,2-2
	c0.7,0,1.3,0,2,0c0-0.3,0-0.7,0-1c1.5-0.6,6-0.4,6,1c0.3,0,0.7,0,1,0c0-0.7,0-1.3,0-2C46.3,39.2,47.7,31.2,33.3,31z"/>
<path fill-rule="evenodd" clip-rule="evenodd" fill="#FFFFFF" d="M41.6,48c-2.1,4.8-4.8,10.6-6,16c0.3,0,0.7,0,1,0
	c1.7-1.9,4.4-2.1,6-4c-3.4-3.9,1.8-8.7,0-12C42.3,48,41.9,48,41.6,48z"/>
<path fill-rule="evenodd" clip-rule="evenodd" fill="#FFFFFF" d="M36.3,56c0.7,0,1.3,0,2,0c1.2-2.2,2.3-3,3-6c0.3,0,0.7,0,1,0
	c0.2-1.4-0.4,0.3-1-1c0-0.3,0-0.7,0-1c-2,0.6-0.9-0.1-2,1C37.4,50.6,36.6,52.7,36.3,56z"/>
</svg>
