<?xml version="1.0" encoding="utf-8"?>
<!-- Generator: Adobe Illustrator 23.0.0, SVG Export Plug-In . SVG Version: 6.00 Build 0)  -->
<svg version="1.1" id="图层_1" xmlns="http://www.w3.org/2000/svg" xmlns:xlink="http://www.w3.org/1999/xlink" x="0px" y="0px"
	 viewBox="0 0 36.8 57" enable-background="new 0 0 36.8 57" xml:space="preserve">
<path fill-rule="evenodd" clip-rule="evenodd" d="M28.5,2.3c0,1.5,0,3,0,4.5c-4,1.6-7.7,3-11.2,5.3c-0.3,0.5-0.5,1-0.8,1.5
	c-1,0.3-2,0.5-3,0.8c-0.3,0.5-0.5,1-0.8,1.5c-1,0.3-2,0.5-3,0.8C9.5,17,9.3,17.5,9,18c-2.5,1-5,2-7.5,3c0-0.3,0-0.5,0-0.8
	c-0.3,0-0.5,0-0.7,0c0-1.5,0-3,0-4.5c3-1.2,6-2.5,9-3.8c0.3-0.5,0.5-1,0.8-1.5c1-0.3,2-0.5,3-0.8C14,9,14.5,8.2,15,7.5
	c0.5,0,1,0,1.5,0c0-0.3,0-0.5,0-0.8c1.2-1,2.5-2,3.8-3c0-1,0-2,0-3c-0.3,0-0.5,0-0.8,0c0-0.3,0-0.5,0-0.8c1.2,0,2.5,0,3.7,0
	C24.2,1,26.9,1.9,28.5,2.3z"/>
<path fill-rule="evenodd" clip-rule="evenodd" d="M27,15.8c-0.5,0-1,0-1.5,0c-3,2.2-6,4.5-9,6.8c0.6,0.9-0.1,0.1,0.8,0.8
	c0.4,0.3,0.1,1.2,1.5,0.8c0-0.3,0-0.5,0-0.8c5.3-0.6,5.5-4.8,11.2-5.3c0.9,0.9,0,0.3,1.5,0.8c0,0.5,0,1,0,1.5c0.3,0,0.5,0,0.8,0
	c-0.3,0.7-0.5,1.5-0.8,2.3c-2,0.4-3.7,1.2-5.3,2.3c-0.5,0.7-1,1.5-1.5,2.3c-0.5,0-1,0-1.5,0c-0.5,0.7-1,1.5-1.5,2.3
	c-0.5,0-1,0-1.5,0c0,0.3,0,0.5,0,0.8c-0.5,0.3-1,0.5-1.5,0.8c0,0.5,0,1,0,1.5c2.6,0,7-0.9,8.2-2.3c-1.3-0.8-1-0.5-1.5-2.3
	c3.1,0.5,6.7,1.6,7.5,4.5c0.3,0,0.5,0,0.8,0c0,1.2,0,2.5,0,3.8c-1.2,0.5-1.8,0.7-3.8,0.8c-1.6-1.9-3.9-2.3-7.5-2.3
	c0.3,1.2,0.5,2.5,0.8,3.8c-0.3,0-0.5,0-0.8,0c0,1.2,0,2.5,0,3.8c5.7-0.1,9,0.7,12.8,2.3c0.9,2,1.4,2.8,1.5,6c-2.1,1.3-2,2.6-5.3,3
	c-1.2-2.1-3.4-3.9-6-4.5c0-0.5,0-1,0-1.5c1.9,0.3,2.8,0.7,5.3,0.8c0.3-0.7,0.5-1.5,0.8-2.3c-1.1-0.6-2.3-1.3-3-2.3
	c-2-0.3-4-0.5-6-0.8c0.3,6.8,0.8,13.6-5.2,14.3c-1.8-3.5-5.4-6.6-10.5-6.8c-1.1,1.8-1,0.5-2.3,1.5c0,0.3,0,0.5,0,0.8
	c-0.3,0-0.5,0-0.8,0c-1.5,1.7,0.8,1.4-2.3,2.3c0-0.3,0-0.5,0-0.8C-0.2,52.5,0,49.8,0,46.5c0.9-0.9,0.3,0,0.8-1.5
	c2.6,0.7,1.9,1.6,4.5,2.3c2.4-2.3,9-2.2,11.3-4.5c0.3,0,0.5,0,0.8,0c0-1.5,0-3,0-4.5c-0.5,0-1,0-1.5,0c0-0.3,0-0.5,0-0.8
	c0,0-4.9,2-5.3,2.3c-0.3,0.5-0.5,1-0.8,1.5C8.5,41.5,7.3,41.8,6,42c-1.2-2.3-2.6-3.4-3-6.8c0.7-0.3,1.5-0.5,2.3-0.8
	c0-0.3,0-0.5,0-0.8c1-0.3,0,0.2,0.8,0.8c1-0.2-0.2-0.4,0.8-0.8c0.7,0,1.5,0,2.2,0c0-0.3,0-0.5,0-0.8c1.5-1.2,3-2.5,4.5-3.8
	c0-0.3,0-0.5,0-0.8c-1.2,0-2.5,0-3.8,0c-1.1,1.4-4,2.4-5.2,1.5c-0.3,0-0.5,0-0.8,0c0-2,0-4,0-6c6.4-2.7,15.5-7.8,18.7-13.5
	C25.7,11.6,26.9,11.4,27,15.8z"/>
<path fill-rule="evenodd" clip-rule="evenodd" fill="#FFFFFF" d="M10.5,49.5c2.2,0.3,4.5,0.5,6.8,0.8c0-2,0-4,0-6
	C14.1,44.8,11.3,46.4,10.5,49.5z"/>
</svg>
