<?xml version="1.0" encoding="utf-8"?>
<!-- Generator: Adobe Illustrator 23.0.0, SVG Export Plug-In . SVG Version: 6.00 Build 0)  -->
<svg version="1.1" id="图层_1" xmlns="http://www.w3.org/2000/svg" xmlns:xlink="http://www.w3.org/1999/xlink" x="0px" y="0px"
	 viewBox="0 0 55.5 51" enable-background="new 0 0 55.5 51" xml:space="preserve">
<path fill-rule="evenodd" clip-rule="evenodd" d="M29.3,0c4.6-0.1,5.9,0.8,9,1.5c0.6,1.1,1.3,2.3,2.3,3C40.3,5.8,40,7,39.8,8.3
	c2.6,0.5,3.4,0.8,3.8,3.8c-0.3,0-0.5,0-0.8,0c0,0.5,0,1,0,1.5c-0.7,0.5-1.5,1-2.3,1.5c0,0.3,0,0.5,0,0.8c-0.5,0-1,0-1.5,0
	c-2.5,2.7-5,5.5-7.5,8.3c0.7,0,1.5,0,2.3,0c1.1-1.8,3.3-2.2,4.5-3.8c0.3-0.7,0.5-1.5,0.8-2.3c1.2,0,2.5,0,3.8,0
	c0.9,0.9,0,0.3,1.5,0.8c0.5,1.2,0.7,1.8,0.8,3.8c-2.2,1.5-4.5,3-6.8,4.5c0.4,1.5-0.1,0.6,0.8,1.5c0.9,0.9,0,0.3,1.5,0.8c0,1,0,2,0,3
	c-0.7,0.5-1.5,1-2.3,1.5c0,0.5,0,1,0,1.5c-1.2,2.1-5.3,8.2-3.8,10.5c2.7,3.1,11,1,15,0.8c0.7-1.4,2.4-3.1,3-4.5
	c0.9-2.3-0.1-4.3,1.5-6c0.2,4.7,1.4,7.3,1.5,12.8c-0.3,0-0.5,0-0.8,0c0,0.3,0,0.5,0,0.8c-4.5,0.5-9,1-13.5,1.5c0-0.3,0-0.5,0-0.8
	c-3-0.3-6-0.5-9-0.8c-0.6-1.1-1.3-2.3-2.3-3c1-3.5,2-7,3-10.5c0.3,0,0.5,0,0.8,0c0.5-1.5,1-3,1.5-4.5c-0.5,0-1,0-1.5,0
	c-2.5,3.2-5,6.5-7.5,9.8c-1,0.7-2,1.5-3,2.3c-1.6,2.2-1.4,3.7-4.5,4.5c-0.3-1.5-0.5-3-0.8-4.5c0.3,0,0.5,0,0.8,0
	c1.4-5.3,9.8-8.1,11.3-13.5c-0.7,0.3-1.5,0.5-2.3,0.8c0,0.3,0,0.5,0,0.8c-0.5,0-1,0-1.5,0c0,0.3,0,0.5,0,0.8c-1.2,0-2.5,0-3.8,0
	c-0.3-3.3-0.6-3.6,0-6.8c0.5,0,1,0,1.5,0c2.3-2.6,4.9-2.5,6-6.8c-2.9,0.5-2.4,0.5-5.3,0c-0.6-1.4-1.1-2-1.5-3.8c-0.7,0-1.5,0-2.3,0
	c-0.9,3.3-3.6,3.9-4.5,7.5c3.3,1.4,3.9,2.6,3.8,7.5c-2.7,2-5.5,4-8.3,6c0-0.5,0-1,0-1.5c1-0.6,0.9-0.5,1.5-1.5c-0.5,0-1,0-1.5,0
	c-1.4,1.7-5.1,3-7.5,3.8c0,0.3,0,0.5,0,0.8C3.8,37.3,3,37,2.3,36.8c-0.3-1.5-0.5-3-0.8-4.5c3.9-1.5,8-4.8,9-9
	c-2.3,0.3-7.5,3.3-8.3,3c0-0.3,0-0.5,0-0.8c-1.4-1.2-1.5-2.5-1.5-5.3c0.5,0,1,0,1.5,0c1-1.8,2.8-2.5,3.8-3.8c0-0.5,0-1,0-1.5
	c0.5-0.3,1-0.5,1.5-0.8c0.3-1,0.5-2,0.8-3c0.5-0.3,1-0.5,1.5-0.8c0-0.5,0-1,0-1.5c0.3,0,0.5,0,0.8,0c0.5-1,1.2-6.3,0-6.7
	c1.5,0,3,0,4.5,0c0.8,1.3,0.5,1,2.3,1.5C17.5,5,17.8,6.3,18,7.5c2.3,0.2,3.5,0.8,5.3,1.5c0.7,2.1,1,2.3,0,4.5c0.3,0,0.5,0,0.8,0
	c0,0.3,0,0.5,0,0.8c1,0,2,0,3,0c0-0.3,0-0.5,0-0.8c0.7,0,1.5,0,2.3,0c0.3-0.5,0.5-1,0.8-1.5c2.2-1.2,4.5-2.5,6.8-3.8
	c-1.2-1.3-1.4-0.7-3-1.5c0-0.3,0-0.5,0-0.8c-0.5,0-1,0-1.5,0c0-0.3,0-0.5,0-0.8c-0.5,0-1,0-1.5,0c0.3-0.5,0.5-1,0.8-1.5
	c-0.3,0-0.5,0-0.8,0C29.9,2.6,29.5,1.6,29.3,0z"/>
<path fill-rule="evenodd" clip-rule="evenodd" fill="#FFFFFF" d="M12.8,19.5c1-4.7,4.6-5,5.3-10.5c-0.5,0-1,0-1.5,0
	c-2.3,4.1-6.2,6.9-8.3,11.3c0.3,0,0.5,0,0.8,0c0-0.3,0-0.5,0-0.8C10.2,19.5,11.5,19.5,12.8,19.5z"/>
<path fill-rule="evenodd" clip-rule="evenodd" fill="#FFFFFF" d="M12,29.3c1.2-0.3,2.5-0.5,3.8-0.8c0.5-1.4,0.7-2.9,0.8-5.3
	C13.7,24,12.6,26.4,12,29.3z"/>
<path fill-rule="evenodd" clip-rule="evenodd" d="M15,36c0.5,0,1,0,1.5,0c0,0.3,0,0.5,0,0.8c0.7-0.3,1.5-0.5,2.3-0.8
	c-0.5,2.5-1,5-1.5,7.5c-0.3,0-0.5,0-0.8,0c0-0.3,0-0.5,0-0.8C14.9,41.4,14.9,39.2,15,36z"/>
<path fill-rule="evenodd" clip-rule="evenodd" d="M8.3,38.3c1.4,0.7,2.3,3.1,3.8,1.5c0,0.7,0,1.5,0,2.3c-0.3,0-0.5,0-0.8,0
	c0,1.2,0,2.5,0,3.8c-0.3,0-0.5,0-0.8,0c0,0.3,0,0.5,0,0.8c-0.3,0-0.5,0-0.8,0c0-0.3,0-0.5,0-0.8C7.9,44.2,7.6,40.1,8.3,38.3z"/>
<path fill-rule="evenodd" clip-rule="evenodd" d="M2.3,39.8c0.3,0,0.5,0,0.8,0c0,1,0,2,0,3c0.7-0.3,1.5-0.5,2.3-0.8
	c0,0.3,0,0.5,0,0.8c-1.8,1.8-1.4,4.5-3.8,6c0,0.3,0,0.5,0,0.8c-0.3,0-0.5,0-0.8,0c0-0.3,0-0.5,0-0.8c-0.3,0-0.5,0-0.8,0
	c0-1.5,0-3,0-4.5C1.3,43.1,1.6,41.4,2.3,39.8z"/>
</svg>
